<svg xmlns="http://www.w3.org/2000/svg" width="422.738" height="422.737" enable-background="new 0 0 422.738 422.737" viewBox="0 0 422.738 422.737" id="current-location">
  <path fill="#333" d="M211.369,0C94.819,0,0,94.819,0,211.368c0,116.55,94.819,211.369,211.369,211.369
		c116.549,0,211.37-94.819,211.37-211.369C422.738,94.819,327.918,0,211.369,0z M211.369,403.355
		c-105.862,0-191.986-86.125-191.986-191.987c0-105.861,86.125-191.986,191.986-191.986s191.987,86.125,191.987,191.986
		C403.355,317.23,317.23,403.355,211.369,403.355z"></path>
  <path fill="#333" d="M221.453,356.859l-37.241-122.766l-122.783-27.64l255.436-103.826L221.453,356.859z
		 M107.916,202.616l87.287,19.652l27.649,91.157l69.762-185.878L107.916,202.616z"></path>
</svg>
